<?xml version="1.0" encoding="UTF-8" standalone="no"?>
<!DOCTYPE svg PUBLIC "-//W3C//DTD SVG 1.1//EN" "http://www.w3.org/Graphics/SVG/1.1/DTD/svg11.dtd">
<svg width="100%" height="100%" viewBox="0 0 768 726" version="1.1" xmlns="http://www.w3.org/2000/svg" xmlns:xlink="http://www.w3.org/1999/xlink" xml:space="preserve" xmlns:serif="http://www.serif.com/" style="fill-rule:evenodd;clip-rule:evenodd;stroke-linejoin:round;stroke-miterlimit:2;">
	<rect id="Artboard9" x="0" y="0" width="767.417" height="725.958" style="fill:none;" />
	<g>
		<path d="M244.904,328.915l-116.877,0l1.699,-178.739l-125.135,0.56l0.577,-137.57l362.346,-0.432l0.251,131.425l-127.07,4.712l4.21,180.044Z" style="fill:#fff;" />
		<path d="M93.233,711.837l241.688,0.161l8.202,-131.175l-137.653,-0.299l2.438,-183.168l-103.666,-2.481l-11.008,316.963Z" style="fill:#fff;" />
		<path d="M574.357,4.333c62.797,-6.251 169.434,10.014 185.873,140.72c25.687,204.235 -147.112,192.691 -169.254,193.59c-25.195,1.023 -205.116,12.506 -206.076,-166.006c-0.807,-150.038 127.421,-162.129 189.457,-168.303Zm-0.328,110.496c-20.95,2.085 -64.254,6.169 -63.982,56.838c0.324,60.285 61.086,56.408 69.594,56.062c7.478,-0.304 65.834,3.595 57.159,-65.377c-5.552,-44.141 -41.564,-49.634 -62.771,-47.523Z" style="fill:#fff;" />
		<path d="M564.357,387.945c62.797,-6.251 169.434,10.014 185.873,140.72c25.687,204.235 -147.112,192.691 -169.254,193.59c-25.195,1.023 -205.116,12.506 -206.076,-166.006c-0.807,-150.038 127.421,-162.129 189.457,-168.303Zm-0.328,110.496c-20.95,2.085 -64.254,6.169 -63.982,56.838c0.324,60.285 61.086,56.408 69.594,56.062c7.478,-0.304 65.834,3.595 57.159,-65.377c-5.552,-44.141 -41.564,-49.634 -62.771,-47.523Z" style="fill:#fff;" />
	</g>
</svg>
